<?xml version="1.0" encoding="UTF-8"?>
<svg width="36px" height="36px" viewBox="0 0 36 36" version="1.1" xmlns="http://www.w3.org/2000/svg" xmlns:xlink="http://www.w3.org/1999/xlink">
    <title>支持Account 登录流程插件化</title>
    <g id="支持Account-登录流程插件化" stroke="none" stroke-width="1" fill="none" fill-rule="evenodd">
        <rect id="蓝色" fill="#338FE5" fill-rule="nonzero" x="0" y="0" width="36" height="36" rx="2"></rect>
        <path d="M18,5 C25.1797017,5 31,10.8202983 31,18 C31,25.1797017 25.1797017,31 18,31 C10.8202983,31 5,25.1797017 5,18 C5,10.8202983 10.8202983,5 18,5 Z M18,7 C11.9248678,7 7,11.9248678 7,18 C7,24.0751322 11.9248678,29 18,29 C24.0751322,29 29,24.0751322 29,18 C29,11.9248678 24.0751322,7 18,7 Z M18.115153,10 L24.9783654,12 L24.9983256,15.3177431 L24.9983256,17.4413571 L24.9911634,18.6168962 L24.9783654,19.6335314 C24.9517966,21.2280446 22.987139,23.2048188 19.0843926,25.5638539 L18.396365,25.9720045 C18.2785295,26.0406537 18.1591119,26.1096149 18.0381122,26.1788882 L17.6762758,25.972835 L16.9813474,25.5662106 C13.0393813,23.2155552 11.0536209,21.2379955 11.0240661,19.6335314 L11.0098297,18.6121029 L11.0006,17.006298 L11.0038217,14.8021098 L11.018624,12.5952649 C11.020322,12.3997468 11.022136,12.2013252 11.0240661,12 L18.115153,10 Z M18.0078024,20.0894441 C16.7882322,20.0894441 15.699089,20.5785142 14.7128749,21.6027519 C14.8011707,21.6745831 14.8933055,21.7477031 14.9889742,21.8220838 L15.4018958,22.1346191 L15.8547178,22.4606126 L16.3475792,22.7993382 L16.880619,23.1500698 L17.4539759,23.5120811 C17.5529029,23.573316 17.6535155,23.6349906 17.7558167,23.6970898 L18.03,23.862 L18.2969509,23.7005061 L18.8850083,23.3316792 C18.9796746,23.2711133 19.0726713,23.2110101 19.1640011,23.1513847 L19.6920016,22.7994869 C19.7766758,22.7418331 19.859689,22.6846874 19.9410439,22.6280647 L20.409299,22.294727 L20.8378968,21.9746688 C20.9060327,21.9224727 20.9725219,21.8708601 21.0373674,21.8198461 L21.3296508,21.5830464 C20.3193293,20.5728609 19.2201094,20.0894441 18.0078024,20.0894441 Z M18.104,12.08 L13.011,13.517 L13.0006,15.8010036 L13.0037799,17.8310127 L13.0136978,18.943057 L13.0237269,19.5966969 C13.0265833,19.751765 13.1147,19.9544848 13.2892041,20.198965 C14.6379352,18.8084392 16.2199577,18.0894441 18.0078024,18.0894441 C19.7809441,18.0894441 21.3662538,18.7964594 22.7383273,20.1649599 C22.8752273,19.9688259 22.9526664,19.8005176 22.9731639,19.6639443 L22.978643,19.6002107 L22.9942385,18.2275402 L22.9994606,17.0141988 L22.9941995,14.2919555 L22.989,13.504 L18.104,12.08 Z M18,14 C19.1045695,14 20,14.8954305 20,16 C20,17.1045695 19.1045695,18 18,18 C16.8954305,18 16,17.1045695 16,16 C16,14.8954305 16.8954305,14 18,14 Z" id="形状结合" fill="#FFFFFF" fill-rule="nonzero"></path>
    </g>
</svg>