<svg width="1em" height="1em" viewBox="0 0 16 16" xmlns="http://www.w3.org/2000/svg" class="ones-icon ones-icon-non-scaling-stroke" stroke-width="2"><path d="M15 8a1 1 0 0 1 1 1v6a1 1 0 0 1-1 1h-4v-2h3v-4h-3V8h4ZM9 8v2H6v4h3v2H5a1 1 0 0 1-1-1V9a1 1 0 0 1 1-1h4Zm5-8a1 1 0 0 1 1 1v6h-2V2H2v11h1v2H1a1 1 0 0 1-1-1V1a1 1 0 0 1 1-1h13Zm-1 11v2H7v-2h6ZM9.418 2l2.69 2.705-2.69 2.705L8 6l1.286-1.295L8 3.41 9.418 2ZM5.69 2l1.419 1.41-1.286 1.295L7.108 6 5.689 7.41 3 4.705 5.69 2Z" fill="currentColor" fill-rule="nonzero"></path></svg>